<?xml version="1.0" standalone="no"?>
<!DOCTYPE svg PUBLIC "-//W3C//DTD SVG 1.1//EN" "http://www.w3.org/Graphics/SVG/1.1/DTD/svg11.dtd" >
<svg>
<metadata>
Created by FontForge 20090914 at Fri Sep 27 15:30:04 2013
 By www-data
Copyright (c) 2009 by P. A. Vannucci. All rights reserved.
</metadata>
<defs>
<font id="TransformersMovie" horiz-adv-x="523" >
  <font-face 
    font-family="Transformers Movie"
    font-weight="700"
    font-stretch="normal"
    units-per-em="1000"
    panose-1="0 0 0 0 0 0 0 0 0 0"
    ascent="800"
    descent="-200"
    x-height="623"
    cap-height="624"
    bbox="-81 -291 983.998 953.001"
    underline-thickness="50"
    underline-position="-50"
    unicode-range="U+0020-U+2122"
  />
<missing-glyph horiz-adv-x="500" 
 />
    <glyph glyph-name=".notdef" horiz-adv-x="500" 
 />
    <glyph glyph-name="space" unicode=" " horiz-adv-x="500" 
 />
    <glyph glyph-name="space" unicode="&#xa0;" horiz-adv-x="500" 
 />
    <glyph glyph-name="exclam" unicode="!" horiz-adv-x="196" 
d="M182 210h-168v414h169zM14 0v126h168v-126h-168z" />
    <glyph glyph-name="quotedbl" unicode="&#x22;" horiz-adv-x="448" 
d="M182 377h-168v247h169zM433 377h-168v247h169z" />
    <glyph glyph-name="numbersign" unicode="#" horiz-adv-x="890" 
d="M84 267l116 -1l43 88h-121l71 152h121l53 113l169 -2l-54 -111h98l55 113l169 -2l-54 -111h128l-71 -152h-128l-43 -90h132l-72 -152h-133l-53 -112l-168 1l53 112h-99l-54 -113l-168 1l54 112l-116 1zM467 265l43 89h-98l-44 -88z" />
    <glyph glyph-name="dollar" unicode="$" horiz-adv-x="531" 
d="M363 379l61.998 1.00098c24.667 0 44.334 -5.66699 59.001 -17s24.667 -30 30 -56c0 -1.33301 -0.166992 -2.83301 -0.5 -4.5s-0.5 -3.16699 -0.5 -4.5h2v-233c-10 -42 -39.667 -63 -89 -63l-64 -1v-90h-168v88h-129l-49 134h178v1h142v114h-231c-49.333 0 -79 21 -89 63
c0 10.667 0.166992 22 0.5 34s0.5 23.333 0.5 34h-1v173c5.33301 26 15.333 44.667 30 56s34.334 17 59.001 17h89v76h169v-76h150v-68c0 -2.66699 0.333008 -4.33398 1 -5.00098c0 -10 -0.166992 -20.167 -0.5 -30.5s-0.5 -20.5 -0.5 -30.5l-150 -1v1h-169v-112h169z" />
    <glyph glyph-name="uni0025" unicode="%" horiz-adv-x="708" 
d="M287 0l-168 1l293 618l169 -2zM56 321c-24 0 -38.334 10.001 -43.001 30.001v242c4.66699 23.333 19 35 43 35h158c24.667 0 39.334 -11.667 44.001 -35c-0.666992 -76.667 -0.666992 -157.334 0 -242.001c-5.33301 -20 -20 -30 -44 -30h-158zM100.999 388.001h68v174
h-68v-174zM492.999 -2.99902c-24 0 -38.334 10.001 -43.001 30.001v242c4.66699 23.333 19 35 43 35h158c24.667 0 39.334 -11.667 44.001 -35c-0.666992 -76.667 -0.666992 -157.334 0 -242.001c-5.33301 -20 -20 -30 -44 -30h-158zM537.998 64.002h68v174h-68v-174z" />
    <glyph glyph-name="ampersand" unicode="&#x26;" horiz-adv-x="647" 
d="M521 60h-1.00195c-1.33301 -4.66699 -2.83301 -9 -4.5 -13s-3.5 -7.66699 -5.5 -11l46 -96h-170l-28 59h1c0 0.666992 -0.333008 1 -1 1h-1l1 -1l-255 -2c-49.333 0 -79 21 -89 63v208c10 10.667 18.333 18.5 25 23.5s15 7.5 25 7.5v22
c-10 5.33301 -19.5 11.5 -28.5 18.5s-16.167 18.167 -21.5 33.5v177c5.33301 26 15.333 44.667 30 56s34.334 17 59.001 17l90 -1v2l239 1c24.667 0 44.334 -5.66699 59.001 -17s24.667 -30 30 -56v-177c-5.33301 -15.333 -12.5 -26.5 -21.5 -33.5
s-18.5 -13.167 -28.5 -18.5l-70 -56l24 -51l40 84l169 -2zM192.998 375h149v113h-149v-113zM229.998 268h-37v-144h105z" />
    <glyph glyph-name="quotesingle" unicode="'" horiz-adv-x="197" 
d="M182 377h-168v247h169z" />
    <glyph glyph-name="parenleft" unicode="(" horiz-adv-x="363" 
d="M325 625c-43.333 -60.667 -77.333 -122.666 -102 -185.999s-38 -128 -40 -194s8.33301 -133.5 31 -202.5s59.667 -139.5 111 -211.5h-172c-34.667 63.333 -62 127.166 -82 191.499s-31 129.5 -33 195.5s6 132.833 24 200.5s47.333 136.5 88 206.5h175z" />
    <glyph glyph-name="parenright" unicode=")" horiz-adv-x="363" 
d="M212 625c40.667 -70 70 -138.834 88 -206.501s26 -134.5 24 -200.5s-13 -131.167 -33 -195.5s-47.333 -128.166 -82 -191.499h-172c50.667 72 87.5 142.5 110.5 211.5s33.5 136.5 31.5 202.5s-15.333 130.667 -40 194s-58.667 125.333 -102 186h175z" />
    <glyph glyph-name="asterisk" unicode="*" horiz-adv-x="396" 
d="M114 580v44h169v-49l46 16l34 -105l20 -7l-9 -25l8 -24l-20 -7l-38 -102l-42 15v-44h-168v48l-47 -15l-35 105l-19 7l9 24l-8 24l19 6l39 105z" />
    <glyph glyph-name="plus" unicode="+" horiz-adv-x="400" 
d="M284 228v-102h-168v102l-103 1v168h103v103h169v-103h102v-169h-103z" />
    <glyph glyph-name="comma" unicode="," horiz-adv-x="197" 
d="M16 126h168v-152l-170 -61z" />
    <glyph glyph-name="hyphen" unicode="-" horiz-adv-x="277" 
d="M14 128v169h249v-169h-249z" />
    <glyph glyph-name="period" unicode="." horiz-adv-x="196" 
d="M14 0v126h168v-126h-168z" />
    <glyph glyph-name="slash" unicode="/" horiz-adv-x="484" 
d="M179 0l-168 1l293 618l169 -2z" />
    <glyph glyph-name="zero" unicode="0" horiz-adv-x="526" 
d="M103 -1c-49.333 0 -79.002 21 -89.002 63c0.666992 87.333 1 171 1 251s-0.333008 159.667 -1 239c5.33301 26 15.333 44.667 30 56s34.334 17 59.001 17h320c24.667 0 44.334 -5.66699 59.001 -17s24.667 -30 30 -56c-0.666992 -79.333 -1 -159 -1 -239
s0.333008 -163.667 1 -251c-10 -42 -39.667 -63 -89 -63h-320zM192.998 136h140v354h-140v-354z" />
    <glyph glyph-name="one" unicode="1" horiz-adv-x="343" 
d="M330 0h-169l-1 490l-147 2l44 134l273 -2v-624z" />
    <glyph glyph-name="two" unicode="2" horiz-adv-x="528" 
d="M15 270l-0.00195312 58.001c5.33301 26 15.333 44.667 30 56s34.334 17 59.001 17l228 -1v90h-74v1h-244v133l408 1c24.667 0 44.334 -5.66699 59.001 -17s24.667 -30 30 -56v-152h1v-25c2 1.33301 2 -0.333984 0 -5.00098v-100h-88
c-10.667 -5.33301 -18.667 -5.33301 -24 0h-217v-146h1v-1h327v-124h-408c-49.333 0 -79 21 -89 63v208h1z" />
    <glyph glyph-name="three" unicode="3" horiz-adv-x="570" 
d="M228 491h-179.001v130c-4.66699 0 -7.66699 0.333008 -9 1h9v-1h179v2l239 1c24.667 0 44.334 -5.66699 59.001 -17s24.667 -30 30 -56v-177c-5.33301 -15.333 -12.5 -26.5 -21.5 -33.5s-18.5 -13.167 -28.5 -18.5v-22c10 0 18.333 -2.5 25 -7.5s15 -12.833 25 -23.5
v-208c-10 -42 -39.667 -63 -89 -63h-418v125h328v144h-149v107h149v113h-149v4zM48.999 -3h-36.001c1.33301 0 2.83301 0.166992 4.5 0.5s3.83398 0.5 6.50098 0.5h25v-1z" />
    <glyph glyph-name="four" unicode="4" horiz-adv-x="521" 
d="M12 192v432h169v-301l155 -1v303h170v-1h1l-1 -3v-345h-1v-140h2l-2 -6v-130h-169v192h-324z" />
    <glyph glyph-name="five" unicode="5" horiz-adv-x="527" 
d="M14 133l318.998 1.00098l1 114h-231c-49.333 0 -79 21 -89 63c0 10.667 0.166992 22 0.5 34s0.5 23.333 0.5 34h-1v173c5.33301 26 15.333 44.667 30 56s34.334 17 59.001 17h408v-68c0 -2.66699 0.333008 -4.33398 1 -5.00098c0 -10 -0.166992 -20.167 -0.5 -30.5
s-0.5 -20.5 -0.5 -30.5l-318 -1v-111l230 1c24.667 0 44.334 -5.66699 59.001 -17s24.667 -30 30 -56c0 -1.33301 -0.166992 -2.83301 -0.5 -4.5s-0.5 -3.16699 -0.5 -4.5h2v-233c-10 -42 -39.667 -63 -89 -63l-129 -2v-1l-281 -4v138z" />
    <glyph glyph-name="six" unicode="6" horiz-adv-x="530" 
d="M103 0c-24.667 0 -44.332 5.66699 -58.999 17s-24.667 30 -30 56v486c10 42 39.667 63 89 63l129 2v1h284l-48 -137l-274 2l-1 -114h231c49.333 0 79 -21 89 -63c0 -10.667 -0.166992 -22 -0.5 -34s-0.5 -23.333 -0.5 -34h1v-173c-5.33301 -26 -15.333 -44.667 -30 -56
s-34.334 -17 -59.001 -17h-56l1 -2zM192.002 133l142 1v111l-142 -1v-111z" />
    <glyph glyph-name="seven" unicode="7" horiz-adv-x="521" 
d="M283 490l-219 1l-52 133h496l-256 -624h-169z" />
    <glyph glyph-name="eight" unicode="8" horiz-adv-x="535" 
d="M103 -3c-49.333 0 -79.002 21 -89.002 63v208c10 10.667 18.333 18.5 25 23.5s15 7.5 25 7.5v22c-10 5.33301 -19.5 11.5 -28.5 18.5s-16.167 18.167 -21.5 33.5v177c5.33301 26 15.333 44.667 30 56s34.334 17 59.001 17l90 -1v2l239 1
c24.667 0 44.334 -5.66699 59.001 -17s24.667 -30 30 -56v-177c-5.33301 -15.333 -12.5 -26.5 -21.5 -33.5s-18.5 -13.167 -28.5 -18.5v-22c10 0 18.333 -2.5 25 -7.5s15 -12.833 25 -23.5v-208c-10 -42 -39.667 -63 -89 -63zM192.998 124h149v144h-149v-144zM192.998 375
h149v113h-149v-113z" />
    <glyph glyph-name="nine" unicode="9" horiz-adv-x="530" 
d="M427 622c24.667 0 44.332 -5.66699 58.999 -17s24.667 -30 30 -56v-486c-10 -42 -39.667 -63 -89 -63l-129 -2v-1h-284l48 137l274 -2l1 114h-231c-49.333 0 -79 21 -89 63c0 10.667 0.166992 22 0.5 34s0.5 23.333 0.5 34h-1v173c5.33301 26 15.333 44.667 30 56
s34.334 17 59.001 17h56l-1 2zM337.998 489l-142 -1v-111l142 1v111z" />
    <glyph glyph-name="colon" unicode=":" horiz-adv-x="194" 
d="M13 0v126h168v-126h-168zM13 333v125h168v-125h-168z" />
    <glyph glyph-name="semicolon" unicode=";" horiz-adv-x="198" 
d="M13 333v125h168v-125h-168zM16 126h168v-152l-170 -61z" />
    <glyph glyph-name="less" unicode="&#x3c;" horiz-adv-x="312" 
d="M130 49l-118 248l118 248l169 -2l-117 -246l117 -246z" />
    <glyph glyph-name="equal" unicode="=" horiz-adv-x="442" 
d="M14 458l414 1v-169h-414v168zM14 250l414 1v-169h-414v168z" />
    <glyph glyph-name="greater" unicode="&#x3e;" horiz-adv-x="312" 
d="M12 51l117 246l-117 246l169 2l118 -248l-118 -248z" />
    <glyph glyph-name="question" unicode="?" horiz-adv-x="533" 
d="M13 374l-0.00292969 176c5.33301 26 15.333 44.667 30 56s34.334 17 59.001 17l90 -1v2l239 1c24.667 0 44.334 -5.66699 59.001 -17s24.667 -30 30 -56v-177c-5.33301 -15.333 -12.5 -26.5 -21.5 -33.5s-18.5 -13.167 -28.5 -18.5
c0.666992 0 1.33398 0.166992 2.00098 0.5s1.33398 0.5 2.00098 0.5c-6.66699 -3.33301 -13.834 -6.5 -21.501 -9.5s-16.5 -6.16699 -26.5 -9.5l-35.5 -12c-13.667 -4.66699 -30.167 -10 -49.5 -16v-67h-167v164l167 1v113h-167v-59zM475.997 325
c-0.666992 0 -1.00098 -0.166992 -1.00098 -0.5s-0.333008 -0.5 -1 -0.5c0.666992 0.666992 1.33398 1 2.00098 1zM173.996 0v126h168v-126h-168z" />
    <glyph glyph-name="at" unicode="@" horiz-adv-x="656" 
d="M450 140l14.998 2.00195v316h-284v-444h284l177 -101l-6 8c-2 -16.667 -4.5 -30.334 -7.5 -41.001s-7.66699 -19 -14 -25s-14.666 -10.167 -24.999 -12.5s-23.166 -3.5 -38.499 -3.5l-130 2l1 -2l-311 2c-30.667 -0.666992 -54.334 4.16602 -71.001 14.499
s-24.667 32.166 -24 65.499l-2 633c3.33301 3.33301 6.33301 7.5 9 12.5s6.66699 10.667 12 17s13.5 13.5 24.5 21.5s26.5 16.667 46.5 26l247 1v-1l203 1c18.667 -9.33301 32.334 -18 41.001 -26s15 -15.333 19 -22s6.83301 -12.5 8.5 -17.5s4.16699 -9.16699 7.5 -12.5
l1 -486h-233v1l-158 -3c-34.667 24.667 -51.667 41.334 -51 50.001v162c0.666992 18 21 29.667 61 35h103l1 65h-76l-1 -34l-87 11l-1 70c6 18.667 25 26 57 22l156 -3c20 -10.667 29.667 -17 29 -19l15 -25zM355.998 237.002l-76 1v-94h76v93z" />
    <glyph glyph-name="A" unicode="A" horiz-adv-x="663" 
d="M19 1l228 628h182l215 -628h-352v133h137l-91 282l-149 -415h-170v0z" />
    <glyph glyph-name="B" unicode="B" horiz-adv-x="539" 
d="M21 -1l-0.000976562 625l408 1c24.667 0 44.334 -5.66699 59.001 -17s24.667 -30 30 -56v-177c-5.33301 -15.333 -12.5 -26.5 -21.5 -33.5s-18.5 -13.167 -28.5 -18.5v-22c10 0 18.333 -2.5 25 -7.5s15 -12.833 25 -23.5v-208c-10 -42 -39.667 -63 -89 -63h-408z
M338.999 375v115h-149v-115h149zM338.999 124v146h-149v-146h149z" />
    <glyph glyph-name="C" unicode="C" horiz-adv-x="534" 
d="M515 624l-49 -133.998h-276v-355l325 1l-48 -136h-399c-9.33301 9.33301 -18.333 17.666 -27 24.999s-15.667 18.333 -21 33v517c5.33301 14.667 12.333 25.167 21 31.5s17.667 12.166 27 17.499h447z" />
    <glyph glyph-name="D" unicode="D" horiz-adv-x="535" 
d="M19 -1l-0.000976562 625l408 1c24.667 0 44.334 -5.66699 59.001 -17s24.667 -30 30 -56c-0.666992 -79.333 -1 -159 -1 -239s0.333008 -163.667 1 -251c-10 -42 -39.667 -63 -89 -63h-408zM336.999 136v354h-149l-1 -354h150z" />
    <glyph glyph-name="E" unicode="E" horiz-adv-x="534" 
d="M20 624h495l-49 -134h-276v-114h276v-131h-276v-110l325 1l-48 -136h-447v624z" />
    <glyph glyph-name="F" unicode="F" horiz-adv-x="531" 
d="M20 624h495l-49 -134h-276v-114h276v-131h-276l-1 -245h-169v624z" />
    <glyph glyph-name="G" unicode="G" horiz-adv-x="533" 
d="M189 218v-83h154v110h-95v131h264v-240h2l-2 -6v-130h-493v624h495l-49 -134h-276v-83h-1v-189h1z" />
    <glyph glyph-name="H" unicode="H" horiz-adv-x="533" 
d="M19 0v624h169v-247l155 -1v249h170v-1h1l-1 -3v-345h-1v-140h2l-2 -6v-130h-169v246h-155v-246h-169z" />
    <glyph glyph-name="I" unicode="I" horiz-adv-x="207" 
d="M187 0h-168v624h169z" />
    <glyph glyph-name="J" unicode="J" horiz-adv-x="380" 
d="M362 0h-303l-44 134h177l1 490h169v-624z" />
    <glyph glyph-name="K" unicode="K" horiz-adv-x="559" 
d="M284 304l258 -304h-199l-156 169v-1v-168h-168v199l-1 1l1 1v423h169l-1 -178l123 179h202l-5 -6h3z" />
    <glyph glyph-name="L" unicode="L" horiz-adv-x="525" 
d="M187 134h276l49 -134h-495v624h169z" />
    <glyph glyph-name="M" unicode="M" horiz-adv-x="854" 
d="M511 0h-169v3h-3v490h-151l-2 -493h-169v624l817 1l2 2h1l-1 -3l-2 -624h-168l1 469h-1v24h-154z" />
    <glyph glyph-name="N" unicode="N" horiz-adv-x="529" 
d="M511 0h-169v3h-3v490h-151l-2 -493h-169v624h495z" />
    <glyph glyph-name="O" unicode="O" horiz-adv-x="532" 
d="M106 -1c-49.333 0 -79.002 21 -89.002 63c0.666992 87.333 1 171 1 251s-0.333008 159.667 -1 239c5.33301 26 15.333 44.667 30 56s34.334 17 59.001 17h320c24.667 0 44.334 -5.66699 59.001 -17s24.667 -30 30 -56c-0.666992 -79.333 -1 -159 -1 -239
s0.333008 -163.667 1 -251c-10 -42 -39.667 -63 -89 -63h-320zM195.998 136h140v354h-140v-354z" />
    <glyph glyph-name="P" unicode="P" horiz-adv-x="527" 
d="M186 124l-0.000976562 -125.001h-170v625l408 1c24.667 0 44.334 -5.66699 59.001 -17s24.667 -30 30 -56v-101.5v-58.5v-30.5v-16.5c-4.66699 -22 -12.5 -38.667 -23.5 -50s-25.5 -18.666 -43.5 -21.999v-3h-261v-146h1zM333.999 374.999v115h-149v-115h149z" />
    <glyph glyph-name="Q" unicode="Q" horiz-adv-x="529" 
d="M104 -1c-49.333 0 -79.002 21 -89.002 63v310h1c0 30 -0.166992 60 -0.5 90s-0.5 60 -0.5 90c5.33301 26 15.333 44.667 30 56s34.334 17 59.001 17h320c24.667 0 44.334 -5.66699 59.001 -17s24.667 -30 30 -56c-0.666992 -79.333 -1 -159 -1 -239
s0.333008 -163.667 1 -251c-6.66699 -26.667 -21 -45 -43 -55l1 -128l-134 48l-1 72h-232zM333.998 136v354h-140v-354h140z" />
    <glyph glyph-name="R" unicode="R" horiz-adv-x="530" 
d="M187 -1l-170.001 -0.000976562v301l-1 1l1 1v322l408 1c24.667 0 44.334 -5.66699 59.001 -17s24.667 -30 30 -56v-101.5v-58.5v-30.5v-16.5c-4.66699 -22 -12.5 -38.667 -23.5 -50s-25.5 -18.666 -43.5 -21.999v-3h-64l130 -273h-175l-127 271v107h124v116h-154z" />
    <glyph glyph-name="S" unicode="S" horiz-adv-x="531" 
d="M65 134h269.998l1 114h-231c-49.333 0 -79 21 -89 63c0 10.667 0.166992 22 0.5 34s0.5 23.333 0.5 34h-1v173c5.33301 26 15.333 44.667 30 56s34.334 17 59.001 17h408l-27 -76.5l-21 -58.5v1h-100v-1h-170v-111l230 1c24.667 0 44.334 -5.66699 59.001 -17
s24.667 -30 30 -56c0 -1.33301 -0.166992 -2.83301 -0.5 -4.5s-0.5 -3.16699 -0.5 -4.5h2v-233c-10 -42 -39.667 -63 -89 -63l-129 -2v-1l-281 -2z" />
    <glyph glyph-name="T" unicode="T" horiz-adv-x="521" 
d="M13 625h495v-131h-164l-1 -494h-168v494h-162v131z" />
    <glyph glyph-name="U" unicode="U" horiz-adv-x="525" 
d="M510 0h-495v624h169l2 -493h151v490h3v3h169z" />
    <glyph glyph-name="V" unicode="V" horiz-adv-x="520" 
d="M341 623h166l-162 -625h-3l1 -1h-166v1h-2l-162 625h166l81 -310zM177 -2h1h-1z" />
    <glyph glyph-name="W" unicode="W" horiz-adv-x="848" 
d="M509 134h154v24h1l-1 469h168l2 -624l1 -3h-1l-2 2l-817 1v624h169l2 -493h151v490h3v3h169z" />
    <glyph glyph-name="X" unicode="X" horiz-adv-x="531" 
d="M343 623h169l-162 -306l167 -315h-169l-83 155l-82 -155h-169l167 315l-162 306h169l77 -147z" />
    <glyph glyph-name="Y" unicode="Y" horiz-adv-x="517" 
d="M174 0v317l-162 306h169l77 -147l78 147h169l-162 -306l-1 -317h-168z" />
    <glyph glyph-name="Z" unicode="Z" horiz-adv-x="528" 
d="M18 627h327l1 2h168l-1 -2l-263 -493h211l49 -134h-496l1 2l259 491h-207z" />
    <glyph glyph-name="bracketleft" unicode="[" horiz-adv-x="362" 
d="M299 490h-109l-1 -522h109l49 -134h-329l3 790h327z" />
    <glyph glyph-name="backslash" unicode="\" horiz-adv-x="484" 
d="M11 617l169 2l293 -618l-168 -1z" />
    <glyph glyph-name="bracketright" unicode="]" horiz-adv-x="357" 
d="M13 624h327l3 -790h-329l49 134h109l-1 522h-109z" />
    <glyph glyph-name="asciicircum" unicode="^" horiz-adv-x="522" 
d="M507 341l-246 118l-246 -116l-2 169l248 117l248 -119z" />
    <glyph glyph-name="underscore" unicode="_" horiz-adv-x="652" 
d="M14 -291v168l624 2v-169z" />
    <glyph glyph-name="grave" unicode="`" horiz-adv-x="254" 
d="M182 668l59 -125h-170l-58 123z" />
    <glyph glyph-name="a" unicode="a" horiz-adv-x="650" 
d="M12 1l228 628h182l215 -628h-352v133h137l-91 282l-149 -415h-170z" />
    <glyph glyph-name="b" unicode="b" horiz-adv-x="525" 
d="M14 -1l-0.000976562 625l408 1c24.667 0 44.334 -5.66699 59.001 -17s24.667 -30 30 -56v-177c-5.33301 -15.333 -12.5 -26.5 -21.5 -33.5s-18.5 -13.167 -28.5 -18.5v-22c10 0 18.333 -2.5 25 -7.5s15 -12.833 25 -23.5v-208c-10 -42 -39.667 -63 -89 -63h-408z
M331.999 375v115h-149v-115h149zM331.999 124v146h-149v-146h149z" />
    <glyph glyph-name="c" unicode="c" 
d="M509 624l-49 -133.998h-276v-355l325 1l-48 -136h-399c-9.33301 9.33301 -18.333 17.666 -27 24.999s-15.667 18.333 -21 33v517c5.33301 14.667 12.333 25.167 21 31.5s17.667 12.166 27 17.499h447z" />
    <glyph glyph-name="d" unicode="d" horiz-adv-x="525" 
d="M14 -1l-0.000976562 625l408 1c24.667 0 44.334 -5.66699 59.001 -17s24.667 -30 30 -56c-0.666992 -79.333 -1 -159 -1 -239s0.333008 -163.667 1 -251c-10 -42 -39.667 -63 -89 -63h-408zM331.999 136v354h-149l-1 -354h150z" />
    <glyph glyph-name="e" unicode="e" 
d="M14 624h495l-49 -134h-276v-114h276v-131h-276v-110l325 1l-48 -136h-447v624z" />
    <glyph glyph-name="f" unicode="f" horiz-adv-x="520" 
d="M14 624h495v-135l-325 1v-114h276v-131h-276l1 -438l-170 -61l-1 254v624z" />
    <glyph glyph-name="g" unicode="g" 
d="M184 218v-83h154v110h-95v131h264v-240h2l-2 -6v-130h-493v624h495l-49 -134h-276v-83h-1v-189h1z" />
    <glyph glyph-name="h" unicode="h" 
d="M14 0v624h169v-247l155 -1v249h170v-1h1l-1 -3v-345h-1v-140h2l-2 -6v-130h-169v246h-155v-246h-169z" />
    <glyph glyph-name="i" unicode="i" horiz-adv-x="197" 
d="M182 0h-168v624h169z" />
    <glyph glyph-name="j" unicode="j" horiz-adv-x="373" 
d="M359 0h-303l-44 134h177l1 490h169v-624z" />
    <glyph glyph-name="k" unicode="k" horiz-adv-x="551" 
d="M280 304l258 -304h-199l-156 169v-1v-168h-168v199l-1 1l1 1v423h169l-1 -178l123 179h202l-5 -6h3z" />
    <glyph glyph-name="l" unicode="l" horiz-adv-x="520" 
d="M184 134h276l49 -134h-495v624h169z" />
    <glyph glyph-name="m" unicode="m" horiz-adv-x="848" 
d="M508 0h-169v3h-3v490h-151l-2 -493h-169v624l817 1l2 2h1l-1 -3l-2 -624h-168l1 469h-1v24h-154z" />
    <glyph glyph-name="n" unicode="n" 
d="M508 0h-169v3h-3v490h-151l-2 -493h-169v624h495z" />
    <glyph glyph-name="o" unicode="o" horiz-adv-x="526" 
d="M103 -1c-49.333 0 -79.002 21 -89.002 63c0.666992 87.333 1 171 1 251s-0.333008 159.667 -1 239c5.33301 26 15.333 44.667 30 56s34.334 17 59.001 17h320c24.667 0 44.334 -5.66699 59.001 -17s24.667 -30 30 -56c-0.666992 -79.333 -1 -159 -1 -239
s0.333008 -163.667 1 -251c-10 -42 -39.667 -63 -89 -63h-320zM192.998 136h140v354h-140v-354z" />
    <glyph glyph-name="p" unicode="p" 
d="M184 124l-0.000976562 -125.001h-170v625l408 1c24.667 0 44.334 -5.66699 59.001 -17s24.667 -30 30 -56v-101.5v-58.5v-30.5v-16.5c-4.66699 -22 -12.5 -38.667 -23.5 -50s-25.5 -18.666 -43.5 -21.999v-3h-261v-146h1zM331.999 374.999v115h-149v-115h149z" />
    <glyph glyph-name="q" unicode="q" horiz-adv-x="525" 
d="M102 -1c-49.333 0 -79.002 21 -89.002 63v310h1c0 30 -0.166992 60 -0.5 90s-0.5 60 -0.5 90c5.33301 26 15.333 44.667 30 56s34.334 17 59.001 17h320c24.667 0 44.334 -5.66699 59.001 -17s24.667 -30 30 -56c-0.666992 -79.333 -1 -159 -1 -239
s0.333008 -163.667 1 -251c-6.66699 -26.667 -21 -45 -43 -55l1 -128l-134 48l-1 72h-232zM331.998 136v354h-140v-354h140z" />
    <glyph glyph-name="r" unicode="r" horiz-adv-x="526" 
d="M185 -1l-170.001 -0.000976562v301l-1 1l1 1v322l408 1c24.667 0 44.334 -5.66699 59.001 -17s24.667 -30 30 -56v-101.5v-58.5v-30.5v-16.5c-4.66699 -22 -12.5 -38.667 -23.5 -50s-25.5 -18.666 -43.5 -21.999v-3h-64l130 -273h-175l-127 271v107h124v116h-154z" />
    <glyph glyph-name="s" unicode="s" horiz-adv-x="527" 
d="M14 133l318.998 1l1 114h-231c-49.333 0 -79 21 -89 63c0 10.667 0.166992 22 0.5 34s0.5 23.333 0.5 34h-1v173c5.33301 26 15.333 44.667 30 56s34.334 17 59.001 17h408l-29 -80.5l-20 -53.5h-50l-219 -1v-111l230 1c24.667 0 44.334 -5.66699 59.001 -17
s24.667 -30 30 -56c0 -1.33301 -0.166992 -2.83301 -0.5 -4.5s-0.5 -3.16699 -0.5 -4.5h2v-233c-10 -42 -39.667 -63 -89 -63l-129 -2v-1h-232z" />
    <glyph glyph-name="t" unicode="t" horiz-adv-x="451" 
d="M344 79l1 -275l-170 -61l-1 254v497h-162v131l426 -3v-128h-95v-415h1z" />
    <glyph glyph-name="u" unicode="u" 
d="M509 0h-495v624h169l2 -493h151v490h3v3h169z" />
    <glyph glyph-name="v" unicode="v" horiz-adv-x="517" 
d="M341 623h166l-162 -623h-170l-162 623h166l81 -310z" />
    <glyph glyph-name="w" unicode="w" horiz-adv-x="848" 
d="M509 134h154v24h1l-1 469h168l2 -624l1 -3h-1l-2 2l-817 1v624h169l2 -493h151v490h3v3h169z" />
    <glyph glyph-name="x" unicode="x" horiz-adv-x="531" 
d="M343 623h169l-162 -306l167 -315h-169l-83 155l-82 -155h-169l167 315l-162 306h169l77 -147z" />
    <glyph glyph-name="y" unicode="y" horiz-adv-x="517" 
d="M174 0v317l-162 306h169l77 -147l78 147h169l-162 -306l-1 -317h-168z" />
    <glyph glyph-name="z" unicode="z" horiz-adv-x="528" 
d="M18 627h327l1 2h168l-1 -2l-263 -493h211l49 -134h-496l1 2l259 491h-207z" />
    <glyph glyph-name="braceleft" unicode="{" horiz-adv-x="464" 
d="M401 490h-109l-110 -250l1 -3l108 -269h109l49 -134h-329v179l-108 229l110 232l1 150h327z" />
    <glyph glyph-name="bar" unicode="|" horiz-adv-x="197" 
d="M182 -166h-168v790h169z" />
    <glyph glyph-name="braceright" unicode="}" horiz-adv-x="464" 
d="M14 624h327l1 -150l110 -232l-108 -229v-179h-329l49 134h109l108 269l1 3l-110 250h-109z" />
    <glyph glyph-name="asciitilde" unicode="~" horiz-adv-x="617" 
d="M419 254l143 103l43 -134l-247 -177l-160 223l-143 -103l-43 134l247 177z" />
    <glyph glyph-name="exclamdown" unicode="&#xa1;" horiz-adv-x="196" 
d="M183 -166h-169v414h168zM182 458v-126h-168v126h168z" />
    <glyph glyph-name="cent" unicode="&#xa2;" 
d="M515 136l-48 -135.998h-107v-84h-168v84h-124c-9.33301 9.33301 -18.333 17.666 -27 24.999s-15.667 18.333 -21 33v517c5.33301 14.667 12.333 25.167 21 31.5s17.667 12.166 27 17.499h124v82h169v-82h154l-49 -134l-274 -2v2h-2v-355h1v-1z" />
    <glyph glyph-name="sterling" unicode="&#xa3;" horiz-adv-x="607" 
d="M269 249l1 -115h276l49 -134h-495l-1 249h-86v168l86 1v205h1v1h93l187 1l49 -133l-160 -1v-71l117 1v-172h-117z" />
    <glyph glyph-name="currency" unicode="&#xa4;" horiz-adv-x="658" 
d="M191 -4l-178 34l64 105c0.666992 66.667 1 132 1 196s-0.333008 132.667 -1 206l-64 106l178 34l45 -77h190l41 69l178 -34l-62 -103c-0.666992 -127.333 -0.666992 -260.666 0 -399.999c0 -0.666992 -0.333008 -1.33398 -1 -2.00098l58 -95l-178 -34l-47 79h-175z
M401 194v294h-142v-294h142z" />
    <glyph glyph-name="yen" unicode="&#xa5;" horiz-adv-x="517" 
d="M49 431h64l-101 192h169l77 -147l78 147h169l-101 -191h59v-169h-121v-39h121v-169h-121v-55h-168v55h-125v168h125v40h-125v168z" />
    <glyph glyph-name="brokenbar" unicode="&#xa6;" horiz-adv-x="196" 
d="M14 -166v332h168v-332h-168zM182 295h-168v329h169z" />
    <glyph glyph-name="section" unicode="&#xa7;" horiz-adv-x="529" 
d="M14 -110l319 1.00098l1 109h-36v-1h-232c-15.333 10.667 -26.5 21.167 -33.5 31.5s-12.167 22.833 -15.5 37.5c0 78.667 0.166992 157.5 0.5 236.5s0.166016 161.5 -0.500977 247.5c5.33301 26 15.333 44.667 30 56s34.334 17 59.001 17h408v-68
c0 -2.66699 0.333008 -4.33398 1 -5.00098c0 -10 -0.166992 -20.167 -0.5 -30.5s-0.5 -20.5 -0.5 -30.5l-318 -1v-108h230v1c49.333 0 79 -25.333 89 -76c0 -75.333 -0.166992 -152 -0.5 -230s-0.833008 -163 -1.5 -255c-10 -42 -39.667 -63 -89 -63l-129 -2v-1h-232z
M193 136.001h143l1 111h-144v-111z" />
    <glyph glyph-name="dieresis" unicode="&#xa8;" horiz-adv-x="392" 
d="M14 508v126h168v-126h-168zM210 508v126h168v-126h-168z" />
    <glyph glyph-name="copyright" unicode="&#xa9;" horiz-adv-x="649" 
d="M633 68c-4 -28.667 -11.666 -47.665 -22.999 -56.998s-31.333 -14 -60 -14l-130 2l1 -2l-311 2c-30.667 -0.666992 -54.334 4.16602 -71.001 14.499s-24.667 32.166 -24 65.499v475c3.33301 3.33301 6.33301 7.5 9 12.5s6.66699 10.667 12 17s13.5 13.5 24.5 21.5
s26.5 16.667 46.5 26l247 1v-1l203 1c18.667 -9.33301 32.334 -18 41.001 -26s15 -15.333 19 -22s6.83301 -12.5 8.5 -17.5s4.16699 -9.16699 7.5 -12.5l1 -479c0 0.666992 0.166992 1.16699 0.5 1.5s0.166016 -0.166992 -0.500977 -1.5zM464.001 172.002l3 -2l-1 288h-284
l-2 -286h284zM423.001 422.002l-21 -46.998h-113v-124h134l-20 -47h-164c-4 3.33301 -7.83301 6.16602 -11.5 8.49902s-6.5 6.16602 -8.5 11.499v181c2 5.33301 4.83301 9 8.5 11l11.5 6h184z" />
    <glyph glyph-name="ordfeminine" unicode="&#xaa;" horiz-adv-x="287" 
d="M13 336l95 287h76l90 -287h-146v61h56l-38 129l-62 -190h-71z" />
    <glyph glyph-name="guillemotleft" unicode="&#xab;" horiz-adv-x="598" 
d="M134 0l-118 248l118 248l169 -2l-117 -246l117 -246zM418 0l-118 248l118 248l169 -2l-117 -246l117 -246z" />
    <glyph glyph-name="logicalnot" unicode="&#xac;" horiz-adv-x="441" 
d="M12 293v169l415 -1v-213l-134 -43v87z" />
    <glyph glyph-name="uni00AD" unicode="&#xad;" horiz-adv-x="276" 
d="M14 126v169l248 3v-172h-248z" />
    <glyph glyph-name="registered" unicode="&#xae;" horiz-adv-x="648" 
d="M633 68c-4 -28.667 -11.667 -47.665 -23 -56.998s-31.333 -14 -60 -14l-130 2l1 -2l-311 2c-30.667 -0.666992 -54.334 4.16602 -71.001 14.499s-24.667 32.166 -24 65.499v475c3.33301 3.33301 6.33301 7.5 9 12.5s6.66699 10.667 12 17s13.5 13.5 24.5 21.5
s26.5 16.667 46.5 26l247 1v-1l203 1c18.667 -9.33301 32.334 -18 41.001 -26s15 -15.333 19 -22s6.83301 -12.5 8.5 -17.5s4.16699 -9.16699 7.5 -12.5l1 -479zM464 172.002l3 -2l-1 288h-284l-2 -286h284zM293 211.002h-72v100v1v108h172c21.333 0 34 -8 38 -24v-34v-20
v-10v-5c-4 -14.667 -13.667 -23 -29 -25h-27l55 -92h-73l-54 91v35h53v39h-66z" />
    <glyph glyph-name="degree" unicode="&#xb0;" horiz-adv-x="271" 
d="M57 376c-24 0 -38.333 8.33301 -43 25v198c4.66699 19.333 19 29 43 29h156c24.667 0 39.334 -9.66699 44.001 -29c-0.666992 -63.333 -0.666992 -129.333 0 -198c-4.66699 -16.667 -19.334 -25 -44.001 -25h-156zM101 431h68v143h-68v-143z" />
    <glyph glyph-name="plusminus" unicode="&#xb1;" horiz-adv-x="400" 
d="M14 0v168l102 1v59l-103 1v168h103v103h169v-103h102v-169h-103v-57l103 1v-172h-373z" />
    <glyph glyph-name="twosuperior" unicode="&#xb2;" horiz-adv-x="245" 
d="M14 493c4.66699 22 17.667 33 39 33h99v41h-32h-106v60l177 1c22 0 35 -11 39 -33v-69h1v-12v-2v-46h-39c-4 -2 -7.33301 -2 -10 0h-95v-66v-1h143v-56h-177c-22 0 -35 9.66699 -39 29v94v27z" />
    <glyph glyph-name="threesuperior" unicode="&#xb3;" horiz-adv-x="265" 
d="M108 564h-79.002v60h-1c-1.33301 0 -2 0.333008 -2 1h3v-1h79v1l104 1c22 0 35 -11.667 39 -35v-81c-2 -7.33301 -5 -12.5 -9 -15.5s-8.33301 -5.83301 -13 -8.5v-10c4.66699 0 8.33398 -1.16699 11.001 -3.5s6.33398 -5.83301 11.001 -10.5v-96c-4 -20 -17 -30 -39 -30
h-183v58h144v67h-65v49h65v53h-65v1zM13.998 336h5h10h-15z" />
    <glyph glyph-name="acute" unicode="&#xb4;" horiz-adv-x="254" 
d="M241 666l-58 -123h-170l59 125z" />
    <glyph glyph-name="mu" unicode="&#xb5;" 
d="M15 624h169l2 -493h151v490h3v3h169l1 -624h-326v-56l-170 -61z" />
    <glyph glyph-name="paragraph" unicode="&#xb6;" horiz-adv-x="783" 
d="M14 621h164v5h592l-49 -134l-41 -1l-1 -657h-168v656l-164 -2l-1 -652h-168v161h-164v624z" />
    <glyph glyph-name="periodcentered" unicode="&#xb7;" horiz-adv-x="196" 
d="M14 253v126h168v-126h-168z" />
    <glyph glyph-name="cedilla" unicode="&#xb8;" horiz-adv-x="283" 
d="M100 0h169l-1 -160l-213 1l-42 135l87 -1v25z" />
    <glyph glyph-name="onesuperior" unicode="&#xb9;" horiz-adv-x="191" 
d="M177 338h-88v225l-77 1l23 62l142 -1v-287z" />
    <glyph glyph-name="ordmasculine" unicode="&#xba;" horiz-adv-x="273" 
d="M57 321c-24 0 -38.334 10.001 -43.001 30.001v242c4.66699 23.333 19 35 43 35h158c24.667 0 39.334 -11.667 44.001 -35c-0.666992 -76.667 -0.666992 -157.334 0 -242.001c-5.33301 -20 -20 -30 -44 -30h-158zM101.999 388.001h68v174h-68v-174z" />
    <glyph glyph-name="guillemotright" unicode="&#xbb;" horiz-adv-x="598" 
d="M298 2l117 246l-117 246l169 2l118 -248l-118 -248zM14 2l117 246l-117 246l169 2l118 -248l-118 -248z" />
    <glyph glyph-name="onequarter" unicode="&#xbc;" horiz-adv-x="634" 
d="M522 617l-169 2l-293 -618l168 -1zM178 340h-88v225l-77 1l23 62l142 -1v-287zM544 87v-87h76v59l1 3h-1v63v0v157l1 2h-1v0h-76v-138l-70 1v137h-76v-197h146z" />
    <glyph glyph-name="onehalf" unicode="&#xbd;" horiz-adv-x="631" 
d="M522 617l-169 2l-293 -618l168 -1zM178 340h-88v225l-77 1l23 62l142 -1v-287zM401 122v-94c4 -19.333 17 -29 39 -29h177v56h-143v1v66h95c2.66699 -2 6 -2 10 0h39v46v2v12h-1v69c-4 22 -17 33 -39 33l-177 -1v-60h106h32v-41h-99c-21.333 0 -34.333 -11 -39 -33v-27z
" />
    <glyph glyph-name="threequarters" unicode="&#xbe;" horiz-adv-x="685" 
d="M279 0l-168 1l293 618l169 -2zM449 87v197h76v-137l70 -1v138h76h1l-1 -2v-157v-63h1l-1 -3v-59h-76v87h-146zM107 564h-79.002v60h-1c-1.33301 0 -2 0.333008 -2 1h3v-1h79v1l104 1c22 0 35 -11.667 39 -35v-81c-2 -7.33301 -5 -12.5 -9 -15.5
s-8.33301 -5.83301 -13 -8.5v-10c4.66699 0 8.33398 -1.16699 11.001 -3.5s6.33398 -5.83301 11.001 -10.5v-96c-4 -20 -17 -30 -39 -30h-183v58h144v67h-65v49h65v53h-65v1zM12.998 336h5h10h-15z" />
    <glyph glyph-name="questiondown" unicode="&#xbf;" horiz-adv-x="533" 
d="M174 26l0.00390625 -59.001h167v113l-167 1v164h167v-67c19.333 -6 35.833 -11.333 49.5 -16l35.5 -12c10 -3.33301 18.833 -6.66602 26.5 -9.99902l21.5 -9c-0.666992 0 -1.33398 0.166992 -2.00098 0.5s-1.33398 0.5 -2.00098 0.5c10 -5.33301 19.5 -11.5 28.5 -18.5
s16.167 -18.167 21.5 -33.5v-177c-5.33301 -26 -15.333 -44.667 -30 -56s-34.334 -17 -59.001 -17l-239 1v2l-90 -1c-24.667 0 -44.334 5.66699 -59.001 17s-24.667 30 -30 56v176zM476.004 129.999c-0.666992 0 -1.33301 0.333008 -2 1c0.666992 0 1 -0.166992 1 -0.5
s0.333008 -0.5 1 -0.5zM342.005 454.999v-126h-168v126h168z" />
    <glyph glyph-name="Agrave" unicode="&#xc0;" horiz-adv-x="663" 
d="M19 1l228 628h182l215 -628h-352v133h137l-91 282l-149 -415h-170zM362 837l59 -125h-170l-58 123z" />
    <glyph glyph-name="Aacute" unicode="&#xc1;" horiz-adv-x="663" 
d="M19 1l228 628h182l215 -628h-352v133h137l-91 282l-149 -415h-170zM484 835l-58 -123h-170l59 125z" />
    <glyph glyph-name="Acircumflex" unicode="&#xc2;" horiz-adv-x="663" 
d="M19 1l228 628h182l215 -628h-352v133h137l-91 282l-149 -415h-170zM484 704l-146 98l-144 -96l-1 142l145 97l147 -100z" />
    <glyph glyph-name="Atilde" unicode="&#xc3;" horiz-adv-x="663" 
d="M19 1l228 628h182l215 -628h-352v133h137l-91 282l-149 -415h-170zM415 802l96 62l29 -81l-166 -106l-108 134l-96 -62l-29 81l167 106z" />
    <glyph glyph-name="Adieresis" unicode="&#xc4;" horiz-adv-x="663" 
d="M19 1l228 628h182l215 -628h-352v133h137l-91 282l-149 -415h-170zM159 710v126h168v-126h-168zM355 710v126h168v-126h-168z" />
    <glyph glyph-name="Aring" unicode="&#xc5;" horiz-adv-x="663" 
d="M246 628c-18 2 -29.001 10.333 -33.001 25v198c4.66699 19.333 19 29 43 29h156c24.667 0 39.334 -9.66699 44.001 -29c-0.666992 -63.333 -0.666992 -129.333 0 -198c-3.33301 -11.333 -12.333 -19.333 -27 -24l215 -628h-352v133h137l-91 282l-149 -415h-170z
M299.999 683h68v143h-68v-143z" />
    <glyph glyph-name="AE" unicode="&#xc6;" horiz-adv-x="935" 
d="M921 624l-49 -134h-276v-114h276v-131h-276v-110l325 1l-48 -136l-587 1v133h137l-91 282l-149 -415h-170l228 628z" />
    <glyph glyph-name="Ccedilla" unicode="&#xc7;" horiz-adv-x="531" 
d="M184 0l-116 0.00195312c-9.33301 9.33301 -18.333 17.666 -27 24.999s-15.667 18.333 -21 33v517c5.33301 14.667 12.333 25.167 21 31.5s17.667 12.166 27 17.499h447l-49 -134h-276v-355l325 1l-48 -136h-114l-1 -160l-213 1l-42 135l87 -1v25z" />
    <glyph glyph-name="Egrave" unicode="&#xc8;" horiz-adv-x="534" 
d="M20 624h495l-49 -134h-276v-114h276v-131h-276v-110l325 1l-48 -136h-447v624zM310 837l59 -125h-170l-58 123z" />
    <glyph glyph-name="Eacute" unicode="&#xc9;" horiz-adv-x="534" 
d="M20 0h447l48 136l-325 -1v110h276v131h-276v114h276l49 134h-495v-624zM393 835l-58 -123h-170l59 125z" />
    <glyph glyph-name="Ecircumflex" unicode="&#xca;" horiz-adv-x="534" 
d="M20 0h447l48 136l-325 -1v110h276v131h-276v114h276l49 134h-495v-624zM410 701l-146 98l-144 -96l-1 142l145 97l147 -100z" />
    <glyph glyph-name="Edieresis" unicode="&#xcb;" horiz-adv-x="534" 
d="M20 624h495l-49 -134h-276v-114h276v-131h-276v-110l325 1l-48 -136h-447v624zM86 710v126h168v-126h-168zM282 710v126h168v-126h-168z" />
    <glyph glyph-name="Igrave" unicode="&#xcc;" horiz-adv-x="207" 
d="M187 0h-168v624h169zM130 837l59 -125h-170l-58 123z" />
    <glyph glyph-name="Iacute" unicode="&#xcd;" horiz-adv-x="207" 
d="M249 835l-58 -123h-170l59 125zM188 624h-169v-624h168z" />
    <glyph glyph-name="Icircumflex" unicode="&#xce;" horiz-adv-x="207" 
d="M188 624h-169v-624h168zM250 704l-146 98l-144 -96l-1 142l145 97l147 -100z" />
    <glyph glyph-name="Idieresis" unicode="&#xcf;" horiz-adv-x="207" 
d="M187 0h-168v624h169zM-81 710v126h168v-126h-168zM115 710v126h168v-126h-168z" />
    <glyph glyph-name="Eth" unicode="&#xd0;" horiz-adv-x="633" 
d="M122 -1l-0.000976562 225h-109v168l109 1v231l408 1c24.667 0 44.334 -5.66699 59.001 -17s24.667 -30 30 -56c-0.666992 -79.333 -1 -159 -1 -239s0.333008 -163.667 1 -251c-10 -42 -39.667 -63 -89 -63h-408zM439.999 136v354h-149l-1 -95l96 1v-172h-96v-88h150z" />
    <glyph glyph-name="Ntilde" unicode="&#xd1;" horiz-adv-x="529" 
d="M511 0h-169v3h-3v490h-151l-2 -493h-169v624h495zM339 802l96 62l29 -81l-166 -106l-108 134l-96 -62l-29 81l167 106z" />
    <glyph glyph-name="Ograve" unicode="&#xd2;" horiz-adv-x="532" 
d="M106 -1c-49.333 0 -79.002 21 -89.002 63c0.666992 87.333 1 171 1 251s-0.333008 159.667 -1 239c5.33301 26 15.333 44.667 30 56s34.334 17 59.001 17h320c24.667 0 44.334 -5.66699 59.001 -17s24.667 -30 30 -56c-0.666992 -79.333 -1 -159 -1 -239
s0.333008 -163.667 1 -251c-10 -42 -39.667 -63 -89 -63h-320zM195.998 136h140v354h-140v-354zM309.998 837l59 -125h-170l-58 123z" />
    <glyph glyph-name="Oacute" unicode="&#xd3;" horiz-adv-x="532" 
d="M106 -1h320.002c49.333 0 79 21 89 63c-0.666992 87.333 -1 171 -1 251s0.333008 159.667 1 239c-5.33301 26 -15.333 44.667 -30 56s-34.334 17 -59.001 17h-320c-24.667 0 -44.334 -5.66699 -59.001 -17s-24.667 -30 -30 -56c0.666992 -79.333 1 -159 1 -239
s-0.333008 -163.667 -1 -251c10 -42 39.667 -63 89 -63zM196.002 490h140v-354h-140v354zM393.002 835l-58 -123h-170l59 125z" />
    <glyph glyph-name="Ocircumflex" unicode="&#xd4;" horiz-adv-x="532" 
d="M106 -1h320.002c49.333 0 79 21 89 63c-0.666992 87.333 -1 171 -1 251s0.333008 159.667 1 239c-5.33301 26 -15.333 44.667 -30 56s-34.334 17 -59.001 17h-320c-24.667 0 -44.334 -5.66699 -59.001 -17s-24.667 -30 -30 -56c0.666992 -79.333 1 -159 1 -239
s-0.333008 -163.667 -1 -251c10 -42 39.667 -63 89 -63zM196.002 490h140v-354h-140v354zM410.002 701l-146 98l-144 -96l-1 142l145 97l147 -100z" />
    <glyph glyph-name="Otilde" unicode="&#xd5;" horiz-adv-x="532" 
d="M106 -1c-49.333 0 -79.002 21 -89.002 63c0.666992 87.333 1 171 1 251s-0.333008 159.667 -1 239c5.33301 26 15.333 44.667 30 56s34.334 17 59.001 17h320c24.667 0 44.334 -5.66699 59.001 -17s24.667 -30 30 -56c-0.666992 -79.333 -1 -159 -1 -239
s0.333008 -163.667 1 -251c-10 -42 -39.667 -63 -89 -63h-320zM195.998 136h140v354h-140v-354zM343.998 802l96 62l29 -81l-166 -106l-108 134l-96 -62l-29 81l167 106z" />
    <glyph glyph-name="Odieresis" unicode="&#xd6;" horiz-adv-x="532" 
d="M106 -1c-49.333 0 -79.002 21 -89.002 63c0.666992 87.333 1 171 1 251s-0.333008 159.667 -1 239c5.33301 26 15.333 44.667 30 56s34.334 17 59.001 17h320c24.667 0 44.334 -5.66699 59.001 -17s24.667 -30 30 -56c-0.666992 -79.333 -1 -159 -1 -239
s0.333008 -163.667 1 -251c-10 -42 -39.667 -63 -89 -63h-320zM195.998 136h140v354h-140v-354zM85.998 710v126h168v-126h-168zM281.998 710v126h168v-126h-168z" />
    <glyph glyph-name="multiply" unicode="&#xd7;" horiz-adv-x="395" 
d="M209 497h169l-96 -182l99 -187h-170l-14 27l-15 -27h-168l99 187l-97 182h169l12 -23z" />
    <glyph glyph-name="Oslash" unicode="&#xd8;" horiz-adv-x="532" 
d="M489 601c11.333 -11.333 19 -27.668 23 -49.001c-0.666992 -79.333 -1 -159 -1 -239s0.333008 -163.667 1 -251c-10 -42 -39.667 -63 -89 -63h-219l-42 -88l-168 2l49 102c-14.667 10.667 -24.334 26.334 -29.001 47.001c0.666992 87.333 1 171 1 251
s-0.333008 159.667 -1 239c5.33301 26 15.333 44.667 30 56s34.334 17 59.001 17h228l37 77l168 -2zM193 135.998h140v354h-140v-354z" />
    <glyph glyph-name="Ugrave" unicode="&#xd9;" horiz-adv-x="525" 
d="M509 0h-495v624h169l2 -493h151v490h3v3h169zM310 837l59 -125h-170l-58 123z" />
    <glyph glyph-name="Uacute" unicode="&#xda;" horiz-adv-x="525" 
d="M393 835l-58 -123h-170l59 125zM510 0h-495v624h169l2 -493h151v490h3v3h169z" />
    <glyph glyph-name="Ucircumflex" unicode="&#xdb;" horiz-adv-x="525" 
d="M510 0h-495v624h169l2 -493h151v490h3v3h169zM410 701l-146 98l-144 -96l-1 142l145 97l147 -100z" />
    <glyph glyph-name="Udieresis" unicode="&#xdc;" horiz-adv-x="525" 
d="M510 0h-495v624h169l2 -493h151v490h3v3h169zM86 710v126h168v-126h-168zM282 710v126h168v-126h-168z" />
    <glyph glyph-name="Yacute" unicode="&#xdd;" horiz-adv-x="517" 
d="M342 0l1 317l162 306h-169l-78 -147l-77 147h-169l162 -306v-317h168zM393 835l-58 -123h-170l59 125z" />
    <glyph glyph-name="Thorn" unicode="&#xde;" horiz-adv-x="522" 
d="M183 523l238.999 0.999023c24.667 0 44.334 -5.66699 59.001 -17s24.667 -30 30 -56v-101.5v-58.5v-30.5v-16.5c-4.66699 -22 -12.5 -38.667 -23.5 -50s-25.5 -18.666 -43.5 -21.999v-3h-261v-146h1v-125h-170v726h169v-101zM331.999 273.999v115h-149v-115h149z" />
    <glyph glyph-name="germandbls" unicode="&#xdf;" horiz-adv-x="525" 
d="M14 -1l-0.000976562 625l408 1c24.667 0 44.334 -5.66699 59.001 -17s24.667 -30 30 -56v-177c-5.33301 -15.333 -12.5 -26.5 -21.5 -33.5s-18.5 -13.167 -28.5 -18.5v-22c10 0 18.333 -2.5 25 -7.5s15 -12.833 25 -23.5v-208c-10 -42 -39.667 -63 -89 -63l-137 1v124h47
v146h-47v105h47v115h-149l1 -490z" />
    <glyph glyph-name="agrave" unicode="&#xe0;" horiz-adv-x="650" 
d="M19 1l228 628h182l215 -628h-352v133h137l-91 282l-149 -415h-170zM362 837l59 -125h-170l-58 123z" />
    <glyph glyph-name="aacute" unicode="&#xe1;" horiz-adv-x="650" 
d="M19 1l228 628h182l215 -628h-352v133h137l-91 282l-149 -415h-170zM484 835l-58 -123h-170l59 125z" />
    <glyph glyph-name="acircumflex" unicode="&#xe2;" horiz-adv-x="650" 
d="M19 1l228 628h182l215 -628h-352v133h137l-91 282l-149 -415h-170zM484 704l-146 98l-144 -96l-1 142l145 97l147 -100z" />
    <glyph glyph-name="atilde" unicode="&#xe3;" horiz-adv-x="650" 
d="M19 1l228 628h182l215 -628h-352v133h137l-91 282l-149 -415h-170zM415 802l96 62l29 -81l-166 -106l-108 134l-96 -62l-29 81l167 106z" />
    <glyph glyph-name="adieresis" unicode="&#xe4;" horiz-adv-x="650" 
d="M19 1l228 628h182l215 -628h-352v133h137l-91 282l-149 -415h-170zM159 710v126h168v-126h-168zM355 710v126h168v-126h-168z" />
    <glyph glyph-name="aring" unicode="&#xe5;" horiz-adv-x="650" 
d="M246 628c-18 2 -29.001 10.333 -33.001 25v198c4.66699 19.333 19 29 43 29h156c24.667 0 39.334 -9.66699 44.001 -29c-0.666992 -63.333 -0.666992 -129.333 0 -198c-3.33301 -11.333 -12.333 -19.333 -27 -24l215 -628h-352v133h137l-91 282l-149 -415h-170z
M299.999 683h68v143h-68v-143z" />
    <glyph glyph-name="ae" unicode="&#xe6;" horiz-adv-x="935" 
d="M921 624l-49 -134h-276v-114h276v-131h-276v-110l325 1l-48 -136l-587 1v133h137l-91 282l-149 -415h-170l228 628z" />
    <glyph glyph-name="ccedilla" unicode="&#xe7;" horiz-adv-x="516" 
d="M184 0l-116 0.00195312c-9.33301 9.33301 -18.333 17.666 -27 24.999s-15.667 18.333 -21 33v517c5.33301 14.667 12.333 25.167 21 31.5s17.667 12.166 27 17.499h447l-49 -134h-276v-355l325 1l-48 -136h-114l-1 -160l-213 1l-42 135l87 -1v25z" />
    <glyph glyph-name="egrave" unicode="&#xe8;" 
d="M20 624h495l-49 -134h-276v-114h276v-131h-276v-110l325 1l-48 -136h-447v624zM310 837l59 -125h-170l-58 123z" />
    <glyph glyph-name="eacute" unicode="&#xe9;" 
d="M20 0h447l48 136l-325 -1v110h276v131h-276v114h276l49 134h-495v-624zM393 835l-58 -123h-170l59 125z" />
    <glyph glyph-name="ecircumflex" unicode="&#xea;" 
d="M20 0h447l48 136l-325 -1v110h276v131h-276v114h276l49 134h-495v-624zM410 701l-146 98l-144 -96l-1 142l145 97l147 -100z" />
    <glyph glyph-name="edieresis" unicode="&#xeb;" 
d="M20 624h495l-49 -134h-276v-114h276v-131h-276v-110l325 1l-48 -136h-447v624zM86 710v126h168v-126h-168zM282 710v126h168v-126h-168z" />
    <glyph glyph-name="igrave" unicode="&#xec;" horiz-adv-x="197" 
d="M187 0h-168v624h169zM130 837l59 -125h-170l-58 123z" />
    <glyph glyph-name="iacute" unicode="&#xed;" horiz-adv-x="197" 
d="M249 835l-58 -123h-170l59 125zM188 624h-169v-624h168z" />
    <glyph glyph-name="icircumflex" unicode="&#xee;" horiz-adv-x="197" 
d="M188 624h-169v-624h168zM250 704l-146 98l-144 -96l-1 142l145 97l147 -100z" />
    <glyph glyph-name="idieresis" unicode="&#xef;" horiz-adv-x="197" 
d="M187 0h-168v624h169zM-81 710v126h168v-126h-168zM115 710v126h168v-126h-168z" />
    <glyph glyph-name="eth" unicode="&#xf0;" horiz-adv-x="530" 
d="M161 -3l1.00195 2h-56c-24.667 0 -44.334 5.66699 -59.001 17s-24.667 30 -30 56v173h1c0 10.667 -0.166992 22 -0.5 34s-0.5 23.333 -0.5 34c10 42 39.667 63 89 63h231l-1 114h-4v1v-1l-67 -107l-141 91l9 14h-39l-48 137h170l73 109l139 -92l-13 -20h12
c49.333 0 79 -21 89 -63v-486c-5.33301 -26 -15.333 -44.667 -30 -56s-34.334 -17 -59.001 -17zM196.002 245v-111l142 -1v111zM415.002 622h-11h11zM136.002 493l-3 -5h3v5z" />
    <glyph glyph-name="ntilde" unicode="&#xf1;" 
d="M511 0h-169v3h-3v490h-151l-2 -493h-169v624h495zM339 802l96 62l29 -81l-166 -106l-108 134l-96 -62l-29 81l167 106z" />
    <glyph glyph-name="ograve" unicode="&#xf2;" horiz-adv-x="526" 
d="M106 -1c-49.333 0 -79.002 21 -89.002 63c0.666992 87.333 1 171 1 251s-0.333008 159.667 -1 239c5.33301 26 15.333 44.667 30 56s34.334 17 59.001 17h320c24.667 0 44.334 -5.66699 59.001 -17s24.667 -30 30 -56c-0.666992 -79.333 -1 -159 -1 -239
s0.333008 -163.667 1 -251c-10 -42 -39.667 -63 -89 -63h-320zM195.998 136h140v354h-140v-354zM309.998 837l59 -125h-170l-58 123z" />
    <glyph glyph-name="oacute" unicode="&#xf3;" horiz-adv-x="526" 
d="M106 -1h320.002c49.333 0 79 21 89 63c-0.666992 87.333 -1 171 -1 251s0.333008 159.667 1 239c-5.33301 26 -15.333 44.667 -30 56s-34.334 17 -59.001 17h-320c-24.667 0 -44.334 -5.66699 -59.001 -17s-24.667 -30 -30 -56c0.666992 -79.333 1 -159 1 -239
s-0.333008 -163.667 -1 -251c10 -42 39.667 -63 89 -63zM196.002 490h140v-354h-140v354zM393.002 835l-58 -123h-170l59 125z" />
    <glyph glyph-name="ocircumflex" unicode="&#xf4;" horiz-adv-x="526" 
d="M106 -1h320.002c49.333 0 79 21 89 63c-0.666992 87.333 -1 171 -1 251s0.333008 159.667 1 239c-5.33301 26 -15.333 44.667 -30 56s-34.334 17 -59.001 17h-320c-24.667 0 -44.334 -5.66699 -59.001 -17s-24.667 -30 -30 -56c0.666992 -79.333 1 -159 1 -239
s-0.333008 -163.667 -1 -251c10 -42 39.667 -63 89 -63zM196.002 490h140v-354h-140v354zM410.002 701l-146 98l-144 -96l-1 142l145 97l147 -100z" />
    <glyph glyph-name="otilde" unicode="&#xf5;" horiz-adv-x="526" 
d="M106 -1c-49.333 0 -79.002 21 -89.002 63c0.666992 87.333 1 171 1 251s-0.333008 159.667 -1 239c5.33301 26 15.333 44.667 30 56s34.334 17 59.001 17h320c24.667 0 44.334 -5.66699 59.001 -17s24.667 -30 30 -56c-0.666992 -79.333 -1 -159 -1 -239
s0.333008 -163.667 1 -251c-10 -42 -39.667 -63 -89 -63h-320zM195.998 136h140v354h-140v-354zM343.998 802l96 62l29 -81l-166 -106l-108 134l-96 -62l-29 81l167 106z" />
    <glyph glyph-name="odieresis" unicode="&#xf6;" horiz-adv-x="526" 
d="M106 -1c-49.333 0 -79.002 21 -89.002 63c0.666992 87.333 1 171 1 251s-0.333008 159.667 -1 239c5.33301 26 15.333 44.667 30 56s34.334 17 59.001 17h320c24.667 0 44.334 -5.66699 59.001 -17s24.667 -30 30 -56c-0.666992 -79.333 -1 -159 -1 -239
s0.333008 -163.667 1 -251c-10 -42 -39.667 -63 -89 -63h-320zM195.998 136h140v354h-140v-354zM85.998 710v126h168v-126h-168zM281.998 710v126h168v-126h-168z" />
    <glyph glyph-name="divide" unicode="&#xf7;" horiz-adv-x="442" 
d="M12 165v168h418v-166zM137 0v126h168v-126h-168zM137 373v125h168v-125h-168z" />
    <glyph glyph-name="oslash" unicode="&#xf8;" horiz-adv-x="526" 
d="M489 601c11.333 -11.333 19 -27.668 23 -49.001c-0.666992 -79.333 -1 -159 -1 -239s0.333008 -163.667 1 -251c-10 -42 -39.667 -63 -89 -63h-219l-42 -88l-168 2l49 102c-14.667 10.667 -24.334 26.334 -29.001 47.001c0.666992 87.333 1 171 1 251
s-0.333008 159.667 -1 239c5.33301 26 15.333 44.667 30 56s34.334 17 59.001 17h228l37 77l168 -2zM193 135.998h140v354h-140v-354z" />
    <glyph glyph-name="ugrave" unicode="&#xf9;" 
d="M509 0h-495v624h169l2 -493h151v490h3v3h169zM310 837l59 -125h-170l-58 123z" />
    <glyph glyph-name="uacute" unicode="&#xfa;" 
d="M393 835l-58 -123h-170l59 125zM510 0h-495v624h169l2 -493h151v490h3v3h169z" />
    <glyph glyph-name="ucircumflex" unicode="&#xfb;" 
d="M510 0h-495v624h169l2 -493h151v490h3v3h169zM410 701l-146 98l-144 -96l-1 142l145 97l147 -100z" />
    <glyph glyph-name="udieresis" unicode="&#xfc;" 
d="M510 0h-495v624h169l2 -493h151v490h3v3h169zM86 710v126h168v-126h-168zM282 710v126h168v-126h-168z" />
    <glyph glyph-name="yacute" unicode="&#xfd;" horiz-adv-x="517" 
d="M342 0l1 317l162 306h-169l-78 -147l-77 147h-169l162 -306v-317h168zM393 835l-58 -123h-170l59 125z" />
    <glyph glyph-name="thorn" unicode="&#xfe;" horiz-adv-x="522" 
d="M183 357l238.999 0.999023c24.667 0 44.334 -5.66699 59.001 -17s24.667 -30 30 -56v-101.5v-58.5v-30.5v-16.5c-4.66699 -22 -12.5 -38.667 -23.5 -50s-25.5 -18.666 -43.5 -21.999v-3h-261v-146h1v-18h-170l2 783h163zM331.999 107.999v115h-149v-115h149z" />
    <glyph glyph-name="ydieresis" unicode="&#xff;" horiz-adv-x="517" 
d="M174 0v317l-162 306h169l77 -147l78 147h169l-162 -306l-1 -317h-168zM86 710v126h168v-126h-168zM282 710v126h168v-126h-168z" />
    <glyph glyph-name="OE" unicode="&#x152;" horiz-adv-x="802" 
d="M293 624v1.00195h495l-49 -134h-276v-114h276v-131h-276v-110l325 1l-48 -136h-279v-1h-399c-9.33301 9.33301 -18.333 17.666 -27 24.999s-15.667 18.333 -21 33v517c5.33301 14.667 12.333 25.167 21 31.5s17.667 12.166 27 17.499h231zM184 135.002h109v355h-109v-355
z" />
    <glyph glyph-name="oe" unicode="&#x153;" horiz-adv-x="802" 
d="M293 624v1.00195h495l-49 -134h-276v-114h276v-131h-276v-110l325 1l-48 -136h-279v-1h-399c-9.33301 9.33301 -18.333 17.666 -27 24.999s-15.667 18.333 -21 33v517c5.33301 14.667 12.333 25.167 21 31.5s17.667 12.166 27 17.499h231zM184 135.002h109v355h-109v-355
z" />
    <glyph glyph-name="Scaron" unicode="&#x160;" horiz-adv-x="531" 
d="M16 133l318.998 1.00098l1 114h-231c-49.333 0 -79 21 -89 63c0 10.667 0.166992 22 0.5 34s0.5 23.333 0.5 34h-1v173c5.33301 26 15.333 44.667 30 56s34.334 17 59.001 17h408v-68c0 -2.66699 0.333008 -4.33398 1 -5.00098c0 -10 -0.166992 -20.167 -0.5 -30.5
s-0.5 -20.5 -0.5 -30.5l-318 -1v-111l230 1c24.667 0 44.334 -5.66699 59.001 -17s24.667 -30 30 -56c0 -1.33301 -0.166992 -2.83301 -0.5 -4.5s-0.5 -3.16699 -0.5 -4.5h2v-233c-10 -42 -39.667 -63 -89 -63l-129 -2v-1h-232zM427.998 812.001l-147 -100l-145 97l1 142
l144 -96l146 98z" />
    <glyph glyph-name="scaron" unicode="&#x161;" horiz-adv-x="527" 
d="M16 133l318.998 1.00098l1 114h-231c-49.333 0 -79 21 -89 63c0 10.667 0.166992 22 0.5 34s0.5 23.333 0.5 34h-1v173c5.33301 26 15.333 44.667 30 56s34.334 17 59.001 17h408v-68c0 -2.66699 0.333008 -4.33398 1 -5.00098c0 -10 -0.166992 -20.167 -0.5 -30.5
s-0.5 -20.5 -0.5 -30.5l-318 -1v-111l230 1c24.667 0 44.334 -5.66699 59.001 -17s24.667 -30 30 -56c0 -1.33301 -0.166992 -2.83301 -0.5 -4.5s-0.5 -3.16699 -0.5 -4.5h2v-233c-10 -42 -39.667 -63 -89 -63l-129 -2v-1h-232zM427.998 812.001l-147 -100l-145 97l1 142
l144 -96l146 98z" />
    <glyph glyph-name="Ydieresis" unicode="&#x178;" horiz-adv-x="517" 
d="M174 0v317l-162 306h169l77 -147l78 147h169l-162 -306l-1 -317h-168zM75 712v126h168v-126h-168zM271 712v126h168v-126h-168z" />
    <glyph glyph-name="Zcaron" unicode="&#x17d;" horiz-adv-x="528" 
d="M18 627h327l1 2h168l-1 -2l-263 -493h211l49 -134h-496l1 2l259 491h-207zM428 812l-147 -100l-145 97l1 142l144 -96l146 98z" />
    <glyph glyph-name="zcaron" unicode="&#x17e;" horiz-adv-x="528" 
d="M18 627h327l1 2h168l-1 -2l-263 -493h211l49 -134h-496l1 2l259 491h-207zM428 812l-147 -100l-145 97l1 142l144 -96l146 98z" />
    <glyph glyph-name="florin" unicode="&#x192;" horiz-adv-x="520" 
d="M14 624h495l-49 -134h-276v-114h276v-131h-276l1 -438l-170 -61l-1 254v624z" />
    <glyph glyph-name="circumflex" unicode="&#x2c6;" horiz-adv-x="318" 
d="M304 425l-146 98l-144 -96l-1 142l145 97l147 -100z" />
    <glyph glyph-name="tilde" unicode="&#x2dc;" horiz-adv-x="423" 
d="M286 574l96 62l29 -81l-166 -106l-108 134l-96 -62l-29 81l167 106z" />
    <glyph glyph-name="endash" unicode="&#x2013;" horiz-adv-x="401" 
d="M14 131v168l373 4v-172h-373z" />
    <glyph glyph-name="emdash" unicode="&#x2014;" horiz-adv-x="569" 
d="M14 129v168h541v-166z" />
    <glyph glyph-name="quoteleft" unicode="&#x2018;" horiz-adv-x="197" 
d="M14 622l170 -61v-152h-168z" />
    <glyph glyph-name="quoteright" unicode="&#x2019;" horiz-adv-x="197" 
d="M183 409l-170 61v152h168z" />
    <glyph glyph-name="quotesinglbase" unicode="&#x201a;" horiz-adv-x="197" 
d="M16 126h168v-152l-170 -61z" />
    <glyph glyph-name="quotedblleft" unicode="&#x201c;" horiz-adv-x="433" 
d="M14 628l170 -61v-152h-168zM249 628l170 -61v-152h-168z" />
    <glyph glyph-name="quotedblright" unicode="&#x201d;" horiz-adv-x="433" 
d="M16 628h168v-152l-170 -61zM251 628h168v-152l-170 -61z" />
    <glyph glyph-name="quotedblbase" unicode="&#x201e;" horiz-adv-x="433" 
d="M16 126h168v-152l-170 -61zM251 126h168v-152l-170 -61z" />
    <glyph glyph-name="dagger" unicode="&#x2020;" horiz-adv-x="397" 
d="M282 251v-439l-169 -63v502h-101v168l101 1v204h169v-202l103 1v-172h-103z" />
    <glyph glyph-name="daggerdbl" unicode="&#x2021;" horiz-adv-x="197" 
d="M282 0v-188l-169 -63v251h-101v168l101 1v82h-101v168l101 1v204h169v-202l103 1v-172h-103v-80l103 1v-172h-103z" />
    <glyph glyph-name="bullet" unicode="&#x2022;" horiz-adv-x="242" 
d="M14 213v202h214v-202h-214z" />
    <glyph glyph-name="ellipsis" unicode="&#x2026;" horiz-adv-x="588" 
d="M14 0v126h168v-126h-168zM210 0v126h168v-126h-168zM406 0v126h168v-126h-168z" />
    <glyph glyph-name="perthousand" unicode="&#x2030;" horiz-adv-x="996" 
d="M287 0l-168 1l293 618l169 -2zM56 321c-24 0 -38.334 10.001 -43.001 30.001v242c4.66699 23.333 19 35 43 35h158c24.667 0 39.334 -11.667 44.001 -35c-0.666992 -76.667 -0.666992 -157.334 0 -242.001c-5.33301 -20 -20 -30 -44 -30h-158zM100.999 388.001h68v174
h-68v-174zM492.999 -2.99902c-24 0 -38.334 10.001 -43.001 30.001v242c4.66699 23.333 19 35 43 35h158c24.667 0 39.334 -11.667 44.001 -35c-0.666992 -76.667 -0.666992 -157.334 0 -242.001c-5.33301 -20 -20 -30 -44 -30h-158zM537.998 64.002h68v174h-68v-174z
M781.998 -0.998047c-24 0 -38.334 10.001 -43.001 30.001v242c4.66699 23.333 19 35 43 35h158c24.667 0 39.334 -11.667 44.001 -35c-0.666992 -76.667 -0.666992 -157.334 0 -242.001c-5.33301 -20 -20 -30 -44 -30h-158zM826.997 66.0029h68v174h-68v-174z" />
    <glyph glyph-name="guilsinglleft" unicode="&#x2039;" horiz-adv-x="312" 
d="M130 0l-118 248l118 248l169 -2l-117 -246l117 -246z" />
    <glyph glyph-name="guilsinglright" unicode="&#x203a;" horiz-adv-x="312" 
d="M13 2l117 246l-117 246l169 2l118 -248l-118 -248z" />
    <glyph glyph-name="Euro" unicode="&#x20ac;" horiz-adv-x="508" 
d="M13 445l95 0.00195312v130c5.33301 14.667 12.333 25.167 21 31.5s17.667 12.166 27 17.499h338l-49 -134h-167v-45l154 1l-47 -121h-107v-28l154 1l-50 -121h-104v-42l216 1l-48 -136h-290c-9.33301 9.33301 -18.333 17.666 -27 24.999s-15.667 18.333 -21 33v120
l-95 -1v120h95v29l-95 -1v120z" />
    <glyph glyph-name="trademark" unicode="&#x2122;" horiz-adv-x="677" 
d="M13 626h239v-69h-79l-1 -260h-81v260h-78v69zM505 297h-82v2h-1v257h-73l-1 -259h-81v328l394 1l1 1h1l-1 -2l-1 -328h-81v247v0v12h-74z" />
    <glyph glyph-name=".null" horiz-adv-x="0" 
 />
    <glyph glyph-name="nonmarkingreturn" horiz-adv-x="500" 
 />
    <glyph glyph-name="percent" horiz-adv-x="708" 
d="M287 0l-168 1l293 618l169 -2zM56 321c-24 0 -38.334 10.001 -43.001 30.001v242c4.66699 23.333 19 35 43 35h158c24.667 0 39.334 -11.667 44.001 -35c-0.666992 -76.667 -0.666992 -157.334 0 -242.001c-5.33301 -20 -20 -30 -44 -30h-158zM100.999 388.001h68v174
h-68v-174zM492.999 -2.99902c-24 0 -38.334 10.001 -43.001 30.001v242c4.66699 23.333 19 35 43 35h158c24.667 0 39.334 -11.667 44.001 -35c-0.666992 -76.667 -0.666992 -157.334 0 -242.001c-5.33301 -20 -20 -30 -44 -30h-158zM537.998 64.002h68v174h-68v-174z" />
  </font>
</defs>
</svg>
